<?xml version="1.0" encoding="utf-8"?>
<!-- Generator: Adobe Illustrator 19.1.1, SVG Export Plug-In . SVG Version: 6.00 Build 0)  -->
<svg version="1.1" id="Layer_1" xmlns="http://www.w3.org/2000/svg" xmlns:xlink="http://www.w3.org/1999/xlink" x="0px" y="0px"
	 viewBox="0 0 317.3 244.7" style="enable-background:new 0 0 317.3 244.7;" xml:space="preserve">
<style type="text/css">
	.st0{fill:#FFFFFF;}
	.st1{fill:#1F2020;}
	.st2{fill:#010101;}
</style>
<g>
	<path class="st0" d="M92.1,6.6C44.2,6.6,5.4,45.4,5.4,93.3c0,47.9,38.8,86.6,86.6,86.6c21.5,0,42.3-8.1,58.2-22.6h121.5
		c23.2,0,41.8-18.6,41.8-41.8c0-23.2-18.6-41.8-41.8-41.8h-95.4C167.3,34.5,132.4,6.7,92.1,6.6z"/>
	<path class="st1" d="M92.1,6.6l0-1.5C43.4,5.1,3.9,44.6,3.9,93.3c0,48.7,39.5,88.1,88.1,88.1l0,0c21.9,0,43-8.2,59.2-23l-1-1.1v1.5
		h121.5c12,0,22.8-4.8,30.6-12.7c7.8-7.8,12.7-18.7,12.7-30.6c0-12-4.8-22.8-12.7-30.6c-7.8-7.8-18.7-12.7-30.6-12.7h-95.4v1.5
		l1.5-0.3c-9.2-39.9-44.8-68.2-85.8-68.3l0,0L92.1,6.6l0,1.5c39.6,0,73.9,27.4,82.8,66l0.3,1.2h96.6c22.3,0,40.3,18,40.3,40.3
		c0,22.3-18,40.3-40.3,40.3H149.7l-0.4,0.4c-15.6,14.2-36,22.2-57.2,22.2l0,0c-23.5,0-44.8-9.5-60.2-24.9
		C16.5,138.1,6.9,116.8,6.9,93.3c0-47,38.1-85.1,85.1-85.1l0,0L92.1,6.6z"/>
	<polygon class="st2" points="48.3,96.7 57,75.3 49.7,66.7 63.7,42 78.3,50 84.3,21.3 107,28.7 119.7,18.7 137.7,31.3 137.7,42.7 
		161.7,34.7 162.3,54.7 172.3,61.3 177.7,57.3 177.7,71.3 164.3,83.3 171,91.3 161,102.7 150.3,102.7 151,118.7 139.7,123.3 
		115,113.3 105,121.3 89.7,128.7 83,114.7 68.3,120.7 69,98 	"/>
	<polygon class="st2" points="98.3,120.3 84.3,193 74.3,173.7 89.3,159.7 97,119.7 	"/>
	<polygon class="st2" points="98.3,120.3 97.8,120.2 84.1,191.5 75,173.8 89.8,159.9 97.4,120.4 98.1,120.8 98.3,120.3 97.8,120.2 
		98.3,120.3 98.6,119.9 96.6,118.9 88.9,159.4 73.7,173.6 84.6,194.5 98.9,120.1 98.6,119.9 	"/>
	<polygon class="st2" points="129,125.7 125.3,196.7 138,183.7 129.3,165.3 130.7,126 	"/>
	<polygon class="st2" points="129,125.7 128.5,125.6 124.8,198 138.6,183.8 129.8,165.2 131.2,125.6 128.5,125.1 128.5,125.6 
		129,125.7 128.9,126.2 130.2,126.4 128.8,165.4 137.4,183.6 125.9,195.4 129.5,125.7 129,125.7 128.9,126.2 	"/>
	<polygon class="st2" points="79.3,106.2 45,117.9 42.3,130 33,120.9 32.6,97.9 44,115.9 78.3,104.6 	"/>
	<polygon class="st2" points="79.3,106.2 79.1,105.8 44.5,117.5 42,129 33.5,120.7 33.2,99.7 43.8,116.5 78.1,105.2 78.9,106.5 
		79.3,106.2 79.1,105.8 79.3,106.2 79.7,106 78.5,104 44.2,115.3 32.1,96.1 32.5,121.1 42.6,131 45.4,118.3 80.1,106.5 79.7,106 	
		"/>
	<polygon class="st2" points="149.6,110.4 173.3,130.7 194.4,123.9 174.6,142.1 172.6,131.4 149.3,111.7 	"/>
	<polygon class="st2" points="149.6,110.4 149.3,110.7 173.1,131.3 192.4,125.1 174.9,141.1 173,131.1 149.8,111.5 150.1,110.5 
		149.6,110.4 149.3,110.7 149.6,110.4 149.1,110.2 148.7,111.9 172.1,131.6 174.3,143.1 194.7,124.3 194.3,123.4 173.4,130.1 
		149.3,109.5 149.1,110.2 	"/>
	<polygon class="st2" points="92.9,164.2 89.2,185.5 105.8,198.2 123,187.5 123.6,168.5 107.3,180.1 	"/>
	<polygon class="st0" points="92.9,164.2 92.4,164.1 88.7,185.7 105.8,198.8 123.4,187.8 124.1,167.5 107.4,179.5 92.6,163.1 
		92.4,164.1 92.9,164.2 92.5,164.5 107.2,180.8 123,169.5 122.5,187.2 105.8,197.6 89.8,185.3 93.4,164.3 92.9,164.2 92.5,164.5 	
		"/>
	<polyline class="st0" points="113.3,179.9 118.8,185.2 119.5,184.5 114,179.2 	"/>
	<polyline class="st0" points="113.9,185.2 119.4,179.9 118.8,179.1 113.2,184.5 	"/>
	<polygon class="st0" points="105.1,197.9 100.4,203.9 106.8,203.3 100.4,210 105.6,212.7 104.2,214.6 104.2,227.5 103,237.4 
		104,237.5 105.2,227.5 105.2,214.9 107.1,212.3 102,209.7 109.4,202 102.6,202.7 105.9,198.5 105.1,197.9 	"/>
	<ellipse class="st0" cx="99.2" cy="181.1" rx="0.9" ry="1"/>
	<ellipse class="st0" cx="95.2" cy="181.9" rx="0.9" ry="1"/>
	<ellipse class="st0" cx="94.4" cy="177.6" rx="0.9" ry="1"/>
	<ellipse class="st0" cx="98.1" cy="176.8" rx="0.9" ry="1"/>
	<polygon class="st2" points="150.4,136.7 150.4,94.7 188.7,94.7 188.7,136.7 169.1,117.1 	"/>
	<polygon class="st0" points="150.4,136.7 151.4,136.7 151.4,95.7 187.7,95.7 187.7,134.3 169.1,115.7 149.6,136 150.4,136.7 
		151.4,136.7 150.4,136.7 151.1,137.4 169.1,118.6 189.7,139.1 189.7,93.7 149.4,93.7 149.4,139.2 151.1,137.4 	"/>
	<polygon class="st2" points="199.4,136.2 237.2,136.2 218.2,117.2 	"/>
	<polygon class="st0" points="199.4,136.2 199.4,137.2 239.6,137.2 218.2,115.8 197,137.2 199.4,137.2 199.4,136.2 200.1,136.9 
		218.2,118.6 234.8,135.2 199.4,135.2 199.4,136.2 200.1,136.9 	"/>
	<polygon class="st2" points="218.2,114.1 237.2,95.1 199.4,95.1 	"/>
	<polygon class="st0" points="218.2,114.1 218.9,114.8 239.6,94.1 197,94.1 218.2,115.6 218.9,114.8 218.2,114.1 218.9,113.4 
		201.8,96.1 234.8,96.1 217.5,113.4 218.2,114.1 218.9,113.4 	"/>
	<polygon class="st2" points="282.8,136.2 246.6,136.2 246.6,95.1 282.8,95.1 265.9,116.1 	"/>
	<polygon class="st0" points="282.8,136.2 282.8,135.2 247.6,135.2 247.6,96.1 280.7,96.1 264.6,116.1 282,136.9 282.8,136.2 
		282.8,135.2 282.8,136.2 283.5,135.6 267.2,116.1 284.8,94.1 245.6,94.1 245.6,137.2 284.9,137.2 283.5,135.6 	"/>
	<polygon class="st2" points="139.9,94.3 139.9,136.3 101.6,136.3 101.6,94.3 121.1,113.8 	"/>
	<polygon class="st0" points="139.9,94.3 138.9,94.3 138.9,135.3 102.6,135.3 102.6,96.7 121.1,115.3 140.6,95 139.9,94.3 
		138.9,94.3 139.9,94.3 139.2,93.6 121.1,112.4 100.6,91.9 100.6,137.3 140.9,137.3 140.9,91.8 139.2,93.6 	"/>
	<circle class="st0" cx="110" cy="105.9" r="2.3"/>
	<circle class="st0" cx="131.8" cy="105.8" r="2.3"/>
	<circle class="st0" cx="118" cy="129.4" r="0.8"/>
	<circle class="st0" cx="124.3" cy="129.4" r="0.8"/>
</g>
</svg>
